<svg version="1.1" xmlns="http://www.w3.org/2000/svg" xmlns:xlink="http://www.w3.org/1999/xlink" viewBox="0 0 172 172"><g fill="none" fill-rule="nonzero" stroke="none" stroke-width="1" stroke-linecap="butt" stroke-linejoin="miter" stroke-miterlimit="10" stroke-dasharray="" stroke-dashoffset="0" font-family="none" font-weight="none" font-size="none" text-anchor="none" style="mix-blend-mode: normal"><path d="M0,172v-172h172v172z" fill="#0d6efd"></path><g fill="#ffffff"><path d="M56.43225,0c-0.25621,0.00171 -0.51082,0.04061 -0.75586,0.11548l-53.75,16.125c-1.15884,0.34593 -1.94388,1.42328 -1.91816,2.63238c0.02573,1.2091 0.85588,2.25208 2.02839,2.54841l14.08838,3.51685v20.00403l-1.49597,2.49329c-4.27751,7.09878 -4.6687,15.88092 -1.03931,23.33191c-0.53338,3.12107 0.33809,6.31842 2.38139,8.7372c2.04331,2.41877 5.05007,3.81229 8.21639,3.80797h0.11023c1.08312,12.62435 9.44731,23.44956 21.38977,27.68335v8.19373l-15.04895,6.68726c-12.74318,5.4178 -21.41476,17.47424 -22.49732,31.27893c-0.05106,0.82507 -0.07874,1.65491 -0.07874,2.48804v9.6687c0,1.48427 1.20323,2.6875 2.6875,2.6875h91.375c1.48427,0 2.6875,-1.20323 2.6875,-2.6875v-9.67395c0,-0.83312 -0.02767,-1.66823 -0.07874,-2.49329c-1.08633,-13.8008 -9.7573,-25.85235 -22.49732,-31.26843l-15.04895,-6.68726v-8.19373c11.94246,-4.23379 20.30665,-15.059 21.38977,-27.68335h0.11023c3.16631,0.00432 6.17308,-1.3892 8.21638,-3.80797c2.04331,-2.41877 2.91477,-5.61613 2.38139,-8.7372c3.6294,-7.45099 3.2382,-16.23313 -1.0393,-23.33191l-1.49597,-2.49329v-20.00403l10.75,-2.6875v23.9198c-3.21381,1.13624 -5.36577,4.17085 -5.375,7.57959v5.375c0,4.4528 3.6097,8.0625 8.0625,8.0625c4.4528,0 8.0625,-3.6097 8.0625,-8.0625v-5.375c-0.01365,-3.40489 -2.16481,-6.43415 -5.375,-7.56909v-27.36841c-0.00033,-1.18477 -0.77646,-2.22955 -1.91065,-2.57202l-53.75,-16.125c-0.25345,-0.07742 -0.51709,-0.11635 -0.7821,-0.11548zM56.4375,5.49573l43.61414,13.08057l-43.61414,10.90222l-43.61414,-10.90222zM21.5,26.28186l34.28662,8.5769c0.42724,0.10768 0.87452,0.10768 1.30176,0l34.28662,-8.5769v17.22205c-23.05642,4.68162 -46.81858,4.68162 -69.875,0zM92.71875,48.65845l0.91858,1.53271c2.59184,4.3084 3.37845,9.46567 2.18884,14.35083c-1.27152,-1.14041 -2.79789,-1.95939 -4.45117,-2.38831v-13.24329c0.44881,-0.086 0.89763,-0.16058 1.34375,-0.25195zM20.15625,48.66895c0.44613,0.09137 0.89494,0.16595 1.34375,0.25195v13.23279c-1.65427,0.43198 -3.18073,1.25461 -4.45117,2.3988c-1.18961,-4.88516 -0.403,-10.04243 2.18884,-14.35083zM26.875,49.92871c9.7705,1.6252 19.65777,2.44679 29.5625,2.45654c9.90473,-0.00975 19.792,-0.83135 29.5625,-2.45654v14.57129c0,1.48427 1.20323,2.6875 2.6875,2.6875c2.96853,0 5.375,2.40647 5.375,5.375c0,2.96853 -2.40647,5.375 -5.375,5.375h-2.6875c-1.48427,0 -2.6875,1.20323 -2.6875,2.6875c0,14.84265 -12.03235,26.875 -26.875,26.875c-14.84265,0 -26.875,-12.03235 -26.875,-26.875c0,-1.48427 -1.20323,-2.6875 -2.6875,-2.6875h-2.6875c-2.96853,0 -5.375,-2.40647 -5.375,-5.375c0,-2.96853 2.40647,-5.375 5.375,-5.375c1.48427,0 2.6875,-1.20323 2.6875,-2.6875zM110.26624,51.0625c1.45343,0.0426 2.60939,1.23345 2.60876,2.6875v5.375c0,1.48427 -1.20323,2.6875 -2.6875,2.6875c-1.48427,0 -2.6875,-1.20323 -2.6875,-2.6875v-5.375c-0.00031,-0.72662 0.29362,-1.42241 0.81478,-1.92874c0.52116,-0.50633 1.22514,-0.78005 1.95145,-0.75876zM45.60876,64.5c-1.45343,0.0426 -2.60939,1.23345 -2.60876,2.6875v2.6875c0,1.48427 1.20323,2.6875 2.6875,2.6875c1.48427,0 2.6875,-1.20323 2.6875,-2.6875v-2.6875c0.00031,-0.72662 -0.29362,-1.42241 -0.81478,-1.92874c-0.52116,-0.50633 -1.22514,-0.78005 -1.95145,-0.75876zM67.10876,64.5c-1.45343,0.0426 -2.60939,1.23345 -2.60876,2.6875v2.6875c0,1.48427 1.20323,2.6875 2.6875,2.6875c1.48427,0 2.6875,-1.20323 2.6875,-2.6875v-2.6875c0.00031,-0.72662 -0.29362,-1.42241 -0.81478,-1.92874c-0.52116,-0.50633 -1.22514,-0.78005 -1.95145,-0.75876zM145.17224,84.651c-2.52902,0.02393 -5.1616,0.2588 -7.71607,0.66663c-10.21787,1.63131 -20.75745,6.32801 -19.74158,12.69739c0.10295,0.6241 0.31625,1.22487 0.62988,1.77417l1.93164,4.85535c1.58512,4.03172 2.95185,8.14592 4.09424,12.32471l-14.05689,-7.66882c-0.89957,-0.49124 -2.00024,-0.42803 -2.83766,0.16296c-0.83742,0.59099 -1.26578,1.60685 -1.10435,2.61902l1.01306,6.32507l-8.40893,6.04163c-0.86925,0.62314 -1.28627,1.7024 -1.06186,2.74813c0.22441,1.04573 1.04753,1.85885 2.09592,2.07048l12.09375,2.44605l-8.57165,2.64026c-0.94463,0.29282 -1.65212,1.0808 -1.84185,2.0514c-0.18973,0.97061 0.16894,1.96699 0.93377,2.59398l7.63733,6.28308l0.42517,8.49292c0.05372,1.03625 0.69918,1.949 1.65829,2.34499c0.95911,0.39598 2.0605,0.20445 2.82962,-0.49208l13.45849,-12.23547c0.33356,6.30876 0.1721,12.63396 -0.48291,18.91748c-0.11759,1.11591 0.47048,2.18743 1.47498,2.6875c13.41141,6.65992 29.57253,4.06377 40.22327,-6.46155c0.80176,-0.7884 1.02794,-1.9926 0.56689,-3.01819c-8.11273,-17.93772 -11.74946,-37.57682 -10.59778,-57.2301l0.32019,-5.33301c0.11377,-0.58127 0.12796,-1.17765 0.04199,-1.76367c-0.76997,-4.78308 -7.41989,-6.61209 -15.00696,-6.54028zM51.0625,86c-1.48427,0 -2.6875,1.20323 -2.6875,2.6875c0,4.4528 3.6097,8.0625 8.0625,8.0625c4.4528,0 8.0625,-3.6097 8.0625,-8.0625c0,-1.48427 -1.20323,-2.6875 -2.6875,-2.6875zM145.54492,90.01026c5.49863,0 8.69746,1.20476 9.26453,1.98413v0.14697c-0.473,1.29538 -5.37798,4.85736 -15.21692,6.45105c-9.79862,1.5695 -15.54013,-0.24427 -16.41895,-1.24402l-0.08923,-0.22571c0.344,-1.25506 5.24348,-4.89385 15.22217,-6.49829c2.39276,-0.39586 4.81316,-0.60121 7.2384,-0.61413zM154.40527,99.37976c-0.34416,7.07374 -0.09307,14.16388 0.75061,21.19555v0.00525l-23.46838,3.7688c-1.40304,-6.94635 -3.38715,-13.76255 -5.9314,-20.37671c0.11288,0.0215 0.19938,0.05199 0.31494,0.07349c2.05514,0.36104 4.13879,0.53497 6.22534,0.51965c2.72562,-0.01054 5.44612,-0.23696 8.13599,-0.67712c4.8793,-0.70111 9.60411,-2.22576 13.9729,-4.50891zM51.0625,112.39734c1.77518,0.3091 3.57314,0.46888 5.375,0.47766c1.80186,-0.00878 3.59982,-0.16856 5.375,-0.47766v7.42737l-5.375,5.375l-5.375,-5.375zM112.53381,116.63855l13.56348,7.39063c0.22306,1.0535 0.43894,2.10372 0.63513,3.15991l-3.90527,1.20728l-15.71033,-3.17566l4.75561,-3.41711c0.82114,-0.59745 1.2354,-1.60671 1.0708,-2.60877zM47.77661,124.1394l6.76074,6.76074c1.04949,1.04926 2.7508,1.04926 3.80029,0l6.76074,-6.76074l13.61597,6.05737c-5.85253,6.00538 -13.8914,9.37891 -22.27685,9.34851c-8.38545,0.03039 -16.42433,-3.34313 -22.27685,-9.34851zM155.93799,125.88208c0.29025,1.76838 0.63181,3.53083 0.99731,5.28577l-23.61011,3.79504c-0.20425,-1.76837 -0.42912,-3.54351 -0.70862,-5.31726zM127.61951,132.53784c0.19081,1.34375 0.31679,2.70812 0.46191,4.06799l-12.31421,11.20667l-0.20471,-3.98401c-0.0394,-0.75546 -0.3935,-1.45986 -0.97632,-1.94214l-4.70312,-3.86853zM29.19507,132.66907c1.52069,1.71419 3.199,3.28178 5.01282,4.68213c-1.4445,2.11667 -2.697,4.35816 -3.74255,6.69775l4.92358,2.1521c0.92288,-2.06695 2.02962,-4.0468 3.30689,-5.91565c2.67318,1.49243 5.52527,2.63891 8.48767,3.41186c-2.74771,5.06271 -4.18582,10.73215 -4.18347,16.49243v1.0603h5.375v-1.07605c0.00244,-5.47204 1.54104,-10.8335 4.44067,-15.47412c1.19862,0.11825 2.4017,0.20996 3.62183,0.20996c6.20984,-0.00317 12.3156,-1.59511 17.73645,-4.62439c2.75065,4.0675 4.68324,8.63154 5.68994,13.4375l5.26477,-1.07605c-1.14362,-5.4653 -3.33426,-10.65759 -6.45105,-15.2904c1.81085,-1.40196 3.48727,-2.96943 5.00757,-4.68213c9.00926,5.1684 14.88057,14.45677 15.68408,24.81213c0.04569,0.71219 0.06824,1.43185 0.06824,2.1521v6.98645h-13.4375v-8.0625h-5.375v8.0625h-10.75v-6.45105c0.00222,-3.55596 -0.54125,-7.0912 -1.61145,-10.4823l-5.1283,1.63245c0.91353,2.86658 1.37918,5.85698 1.38049,8.8656v6.4353h-32.26575v-5.375c0.00097,-3.38984 0.46004,-6.764 1.36474,-10.03088l-5.18603,-1.43823c-1.03181,3.73567 -1.55444,7.59357 -1.55371,11.46912v5.375h-13.4375v-6.98645c0,-0.71756 0.02255,-1.43723 0.06824,-2.1521c0.80296,-10.35831 6.67659,-19.64922 15.68933,-24.81738zM158.12683,136.42212c1.66674,6.6798 3.87695,13.21211 6.60852,19.53162c-8.54546,7.46287 -20.59649,9.40416 -31.05322,5.00232v-0.0105c0.61391,-6.85696 0.66657,-13.75262 0.15747,-20.61816z"></path></g></g></svg>