<svg version="1.1" xmlns="http://www.w3.org/2000/svg" xmlns:xlink="http://www.w3.org/1999/xlink" viewBox="0 0 172 172"><g transform=""><g fill="none" fill-rule="nonzero" stroke="none" stroke-width="1" stroke-linecap="butt" stroke-linejoin="miter" stroke-miterlimit="10" stroke-dasharray="" stroke-dashoffset="0" font-family="none" font-weight="none" font-size="none" text-anchor="none" style="mix-blend-mode: normal"><path d="M0,172v-172h172v172z" fill="#0d6efd"></path><g fill="#ffffff"><path d="M86,7.16667l-35.83333,17.07682v33.08984h-14.33333c-11.85367,0 -21.5,9.64633 -21.5,21.5v78.83333h143.33333v-78.83333c0,-11.85367 -9.64633,-21.5 -21.5,-21.5h-14.33333v-33.08984zM86,21.47201l21.5,11.61784v38.57682h28.66667c3.956,0 7.16667,3.21783 7.16667,7.16667v64.5h-50.16667v-21.5c0,-3.956 -3.21067,-7.16667 -7.16667,-7.16667c-3.956,0 -7.16667,3.21067 -7.16667,7.16667v21.5h-50.16667v-64.5c0,-3.94883 3.21067,-7.16667 7.16667,-7.16667h28.66667v-38.57682zM86,43c-3.956,0 -7.16667,3.21067 -7.16667,7.16667c0,3.956 3.21067,7.16667 7.16667,7.16667c3.956,0 7.16667,-3.21067 7.16667,-7.16667c0,-3.956 -3.21067,-7.16667 -7.16667,-7.16667zM43,86v14.33333h14.33333v-14.33333zM78.83333,86v14.33333h14.33333v-14.33333zM114.66667,86v14.33333h14.33333v-14.33333zM43,114.66667v14.33333h14.33333v-14.33333zM114.66667,114.66667v14.33333h14.33333v-14.33333z"></path></g></g></g></svg>